<svg xmlns="http://www.w3.org/2000/svg" width="530" height="509" fill-rule="evenodd" opacity=".3"><path fill="#deccff" d="M443.42 456.52c4.136-4.9 5.917-11.362 4.855-17.653l-22.262-133.252 97.348-95.133c6.004-5.855 8.158-14.55 5.544-22.465-2.614-7.942-9.537-13.71-17.867-14.957l-135.242-20.436L314.438 31.89c-3.763-7.507-11.52-12.26-19.993-12.26s-16.23 4.754-19.993 12.26l-84.568 167.166-11.53 23.946-6.312 33.468-31.454 182.395c-1.408 8.26 2.04 16.58 8.905 21.508 6.865 4.9 15.943 5.565 23.44 1.68l121.505-62.148 121.505 62.148c3.332 1.68 7.038 2.493 10.772 2.406 6.48-.145 12.57-3.044 16.707-7.942z"/><g fill="#663ab7"><path fill-rule="nonzero" d="M367.842 444.833c6.463-.145 12.553-3.044 16.69-7.942s5.917-11.362 4.855-17.653l-22.262-133.252 97.377-95.133c5.975-5.855 8.13-14.55 5.515-22.465-2.614-7.942-9.537-13.71-17.867-14.957l-135.242-20.436L255.55 12.26C251.786 4.754 244.03 0 235.556 0s-16.23 4.754-19.993 12.26l-61.358 120.734L18.962 153.43c-8.33 1.246-15.253 7.015-17.867 14.957-2.614 7.913-.46 16.6 5.515 22.465l97.348 95.133-22.233 133.252c-1.436 8.26 2.01 16.58 8.876 21.508 6.865 4.9 15.943 5.565 23.44 1.68l121.505-62.148 121.505 62.148c3.332 1.68 7.038 2.493 10.772 2.406h.018zm-29.73-61.655l-92.296-47.393c-6.434-3.304-14.076-3.304-20.5 0l-92.296 47.393 16.862-101.485c1.178-7.044-1.15-14.204-6.262-19.248l-74.052-72.12 102.724-15.45c7.18-1.015 13.415-5.45 16.69-11.856l46.592-91.682 46.592 91.682c3.275 6.406 9.508 10.84 16.69 11.856l102.724 15.45-74.052 72.12c-5.113 5.044-7.44 12.203-6.262 19.248l16.858 101.485z"/><path d="M400.61 4.908l32.822 29.553-400.61 444.924L-.001 449.83z"/></g><path fill="#fff" d="M433.433 34.46l32.822 29.553-400.61 444.924-32.822-29.553z"/></svg>